<?xml version="1.0" encoding="UTF-8"?>
<!DOCTYPE svg PUBLIC "-//W3C//DTD SVG 1.1//EN" "http://www.w3.org/Graphics/SVG/1.1/DTD/svg11.dtd">
<svg xmlns="http://www.w3.org/2000/svg" version="1.1" width="120px" height="120px" style="shape-rendering:geometricPrecision; text-rendering:geometricPrecision; image-rendering:optimizeQuality; fill-rule:evenodd; clip-rule:evenodd" xmlns:xlink="http://www.w3.org/1999/xlink">
<g><path style="opacity:1" fill="#fcfdfd" d="M -0.5,-0.5 C 39.5,-0.5 79.5,-0.5 119.5,-0.5C 119.5,39.5 119.5,79.5 119.5,119.5C 79.5,119.5 39.5,119.5 -0.5,119.5C -0.5,79.5 -0.5,39.5 -0.5,-0.5 Z"/></g>
<g><path style="opacity:1" fill="#626262" d="M 43.5,20.5 C 42.6365,21.463 41.9698,21.463 41.5,20.5C 42.6302,19.3777 43.2969,18.0443 43.5,16.5C 45.3785,11.9511 48.3785,8.28446 52.5,5.5C 52.8333,5.83333 53.1667,6.16667 53.5,6.5C 51.1374,11.904 47.8041,16.5706 43.5,20.5 Z"/></g>
<g><path style="opacity:1" fill="#454545" d="M 43.5,16.5 C 43.2969,18.0443 42.6302,19.3777 41.5,20.5C 41.9698,21.463 42.6365,21.463 43.5,20.5C 42.992,23.3886 42.3253,26.2219 41.5,29C 43.6856,32.2047 45.1856,35.7047 46,39.5C 46.7083,40.3805 47.5416,41.0472 48.5,41.5C 48.5,42.1667 48.5,42.8333 48.5,43.5C 46.8712,42.3747 45.3712,41.0414 44,39.5C 43.5484,35.7631 42.3817,32.2631 40.5,29C 41.9526,27.2869 41.7859,25.7869 40,24.5C 39.7674,26.7801 38.934,28.7801 37.5,30.5C 38.6343,33.0698 39.4677,35.7365 40,38.5C 42.4458,42.3944 44.6124,46.3944 46.5,50.5C 41.4775,45.1316 37.9775,38.7983 36,31.5C 34.4555,32.8213 33.2888,32.4879 32.5,30.5C 34.7039,27.553 35.7039,24.2196 35.5,20.5C 36.8221,20.33 37.9887,20.6634 39,21.5C 40.0491,19.3825 41.5491,17.7158 43.5,16.5 Z"/></g>
<g><path style="opacity:1" fill="#c6c6c6" d="M 36.5,25.5 C 39.0118,26.2162 39.0118,27.2162 36.5,28.5C 35.4376,27.5754 35.4376,26.5754 36.5,25.5 Z"/></g>
<g><path style="opacity:1" fill="#eeeeee" d="M 48.5,43.5 C 49.0102,46.3878 48.3435,48.7211 46.5,50.5C 44.6124,46.3944 42.4458,42.3944 40,38.5C 39.4677,35.7365 38.6343,33.0698 37.5,30.5C 38.934,28.7801 39.7674,26.7801 40,24.5C 41.7859,25.7869 41.9526,27.2869 40.5,29C 42.3817,32.2631 43.5484,35.7631 44,39.5C 45.3712,41.0414 46.8712,42.3747 48.5,43.5 Z"/></g>
<g><path style="opacity:1" fill="#454545" d="M 56.5,71.5 C 59.292,65.413 61.9587,59.2464 64.5,53C 63.8307,51.1525 62.4974,49.9858 60.5,49.5C 58.2114,51.5923 55.7114,51.9256 53,50.5C 52.79,52.0581 52.29,53.3915 51.5,54.5C 51.1145,58.3247 50.1145,61.9914 48.5,65.5C 48.6667,66.1667 48.8333,66.8333 49,67.5C 49.5354,65.7295 50.3687,65.3961 51.5,66.5C 49.1939,68.1394 47.1939,70.1394 45.5,72.5C 45.8333,72.8333 46.1667,73.1667 46.5,73.5C 48.4829,72.018 50.3163,70.3513 52,68.5C 52.1667,68.8333 52.3333,69.1667 52.5,69.5C 50.1457,72.688 47.3124,75.3547 44,77.5C 43.3333,79.5 42.6667,81.5 42,83.5C 41.9876,77.5574 43.821,72.2241 47.5,67.5C 46.8902,66.4949 46.2236,66.6615 45.5,68C 41.4985,69.1603 40.1652,67.9936 41.5,64.5C 39.2951,59.6575 40.7951,56.6575 46,55.5C 46.4935,53.8659 46.6602,52.1992 46.5,50.5C 48.3435,48.7211 49.0102,46.3878 48.5,43.5C 49.4822,44.1408 50.4822,44.8075 51.5,45.5C 51.8333,45.1667 52.1667,44.8333 52.5,44.5C 51.1482,43.4756 49.8149,42.4756 48.5,41.5C 49.7914,37.3541 51.7914,33.5208 54.5,30C 60.1691,29.1665 62.8358,31.6665 62.5,37.5C 63.2044,41.2277 61.871,43.8943 58.5,45.5C 61.9293,47.7477 65.2626,50.2477 68.5,53C 71.4512,53.096 74.1178,53.9293 76.5,55.5C 77.5,54.8333 78.5,54.1667 79.5,53.5C 81.3643,55.1955 83.0309,57.0288 84.5,59C 83.7708,60.9922 82.2708,61.8256 80,61.5C 74.4423,60.7523 68.9423,60.2523 63.5,60C 63.3058,67.4273 62.4724,74.9273 61,82.5C 60.8922,78.8235 60.8922,75.1568 61,71.5C 59.5098,70.2721 58.0098,70.2721 56.5,71.5 Z"/></g>
<g><path style="opacity:1" fill="#ececec" d="M 59.5,32.5 C 61.0265,33.4919 61.6932,34.9919 61.5,37C 61.9994,41.0625 60.3328,42.7292 56.5,42C 56.0426,41.586 55.7093,41.086 55.5,40.5C 56.1667,40.1667 56.8333,39.8333 57.5,39.5C 55.2756,38.2199 53.2756,38.5532 51.5,40.5C 51.1667,40.1667 50.8333,39.8333 50.5,39.5C 52.1796,36.425 54.8463,34.925 58.5,35C 59.2524,34.3292 59.5858,33.4959 59.5,32.5 Z"/></g>
<g><path style="opacity:1" fill="#c6c6c6" d="M 48.5,41.5 C 49.8149,42.4756 51.1482,43.4756 52.5,44.5C 52.1667,44.8333 51.8333,45.1667 51.5,45.5C 50.4822,44.8075 49.4822,44.1408 48.5,43.5C 48.5,42.8333 48.5,42.1667 48.5,41.5 Z"/></g>
<g><path style="opacity:1" fill="#e9e9e9" d="M 51.5,54.5 C 50.3995,56.2774 49.5662,58.2774 49,60.5C 48.2191,55.6947 48.7191,51.028 50.5,46.5C 51.48,49.0865 51.8134,51.7531 51.5,54.5 Z"/></g>
<g><path style="opacity:1" fill="#e9e9e9" d="M 54.5,43.5 C 56.178,44.7471 57.5113,46.4138 58.5,48.5C 57.3803,50.5962 55.8803,50.9295 54,49.5C 53.3224,47.4024 53.4891,45.4024 54.5,43.5 Z"/></g>
<g><path style="opacity:1" fill="#f0f0f0" d="M 65.5,53.5 C 69.9238,55.8513 74.5905,56.518 79.5,55.5C 79.4056,56.9715 80.4056,58.1382 82.5,59C 77.1717,59.0683 71.8384,58.735 66.5,58C 65.6919,57.6924 65.0253,57.1924 64.5,56.5C 65.1272,55.5832 65.4606,54.5832 65.5,53.5 Z"/></g>
<g><path style="opacity:1" fill="#e4e4e4" d="M 41.5,64.5 C 42.3093,62.9867 42.4759,61.3201 42,59.5C 47.3866,55.4474 49.0533,57.1141 47,64.5C 45.9805,65.6872 44.8139,66.6872 43.5,67.5C 42.0815,66.9953 41.4148,65.9953 41.5,64.5 Z"/></g>
<g><path style="opacity:1" fill="#404040" d="M 60.5,55.5 C 61.0785,58.5924 60.0785,61.4258 57.5,64C 56.8333,64.6667 56.1667,64.6667 55.5,64C 57.8244,61.5192 59.491,58.6859 60.5,55.5 Z"/></g>
<g><path style="opacity:1" fill="#f0f0f0" d="M 60.5,64.5 C 61.782,65.7082 61.782,67.0416 60.5,68.5C 60.0941,67.4425 60.0941,66.1092 60.5,64.5 Z"/></g>
<g><path style="opacity:1" fill="#373737" d="M 56.5,71.5 C 55.4707,74.8908 53.4707,77.5574 50.5,79.5C 52.016,76.4669 54.016,73.8003 56.5,71.5 Z"/></g>
<g><path style="opacity:1" fill="#3b3b3b" d="M 56.5,74.5 C 57.8024,77.1066 57.6357,79.7732 56,82.5C 55.8253,79.8428 55.9919,77.1761 56.5,74.5 Z"/></g>
<g><path style="opacity:1" fill="#343434" d="M 49.5,74.5 C 50.0954,77.3211 48.9287,79.6545 46,81.5C 46.7978,79.1395 47.9645,76.8061 49.5,74.5 Z"/></g>
<g><path style="opacity:1" fill="#4c4c4c" d="M 50.5,79.5 C 50.3146,81.1958 49.4813,82.5291 48,83.5C 47.7207,81.5878 48.5541,80.2544 50.5,79.5 Z"/></g>
<g><path style="opacity:1" fill="#44a6d6" d="M 54.5,89.5 C 69.2836,89.4007 72.9503,95.734 65.5,108.5C 66.5,109.833 67.5,111.167 68.5,112.5C 66.9255,113.631 65.2588,113.798 63.5,113C 62.4911,110.828 60.8244,109.662 58.5,109.5C 58.5,110.833 58.5,112.167 58.5,113.5C 57.1667,113.5 55.8333,113.5 54.5,113.5C 54.5,105.5 54.5,97.5 54.5,89.5 Z"/></g>
<g><path style="opacity:1" fill="#eff7fb" d="M 58.5,94.5 C 65.6411,94.6204 67.3078,97.7871 63.5,104C 61.8659,104.494 60.1992,104.66 58.5,104.5C 58.5,101.167 58.5,97.8333 58.5,94.5 Z"/></g>
<g><path style="opacity:1" fill="#41a5d5" d="M 97.5,89.5 C 102.953,88.3959 106.953,90.2293 109.5,95C 108.902,96.3012 107.902,97.1345 106.5,97.5C 100.576,92.6183 96.909,93.9517 95.5,101.5C 95.865,107.369 98.865,109.536 104.5,108C 105.357,107.311 106.023,106.478 106.5,105.5C 104.955,104.548 103.288,104.215 101.5,104.5C 101.5,103.167 101.5,101.833 101.5,100.5C 104.833,100.5 108.167,100.5 111.5,100.5C 111.125,110.559 106.125,114.559 96.5,112.5C 89.5413,104.478 89.8746,96.8109 97.5,89.5 Z"/></g>
<g><path style="opacity:1" fill="#55add9" d="M 74.5,89.5 C 78.1667,89.5 81.8333,89.5 85.5,89.5C 85.5,91.1667 85.5,92.8333 85.5,94.5C 83.1667,94.5 80.8333,94.5 78.5,94.5C 78.5,95.8333 78.5,97.1667 78.5,98.5C 81.1667,98.5 83.8333,98.5 86.5,98.5C 86.7135,100.144 86.3802,101.644 85.5,103C 83.5273,103.495 81.5273,103.662 79.5,103.5C 79.5,105.167 79.5,106.833 79.5,108.5C 81.8333,108.5 84.1667,108.5 86.5,108.5C 86.5,110.167 86.5,111.833 86.5,113.5C 82.5,113.5 78.5,113.5 74.5,113.5C 74.5,105.5 74.5,97.5 74.5,89.5 Z"/></g>
<g><path style="opacity:1" fill="#47a7d6" d="M 28.5,90.5 C 29.9778,90.238 31.3112,90.5713 32.5,91.5C 30.3906,95.3175 29.2239,99.3175 29,103.5C 29.5194,102.484 30.3527,101.818 31.5,101.5C 33.0564,102.547 34.7231,103.214 36.5,103.5C 36.5,104.833 36.5,106.167 36.5,107.5C 35.5,107.5 34.5,107.5 33.5,107.5C 33.5,109.5 33.5,111.5 33.5,113.5C 32.1667,113.5 30.8333,113.5 29.5,113.5C 29.5,111.5 29.5,109.5 29.5,107.5C 27.076,107.808 24.7427,107.474 22.5,106.5C 24.5134,101.146 26.5134,95.8122 28.5,90.5 Z"/></g>
<g><path style="opacity:1" fill="#46a4d4" d="M 7.5,89.5 C 10.8333,89.5 14.1667,89.5 17.5,89.5C 16.5785,92.1264 15.5785,94.7931 14.5,97.5C 19.7883,102.705 19.7883,107.871 14.5,113C 11.1074,114.168 8.44077,113.334 6.5,110.5C 8.00344,107.718 10.3368,106.885 13.5,108C 14.8333,106.333 14.8333,104.667 13.5,103C 11.7444,102.798 10.0777,102.298 8.5,101.5C 9.5,99.5 10.5,97.5 11.5,95.5C 10.3112,94.5713 8.97782,94.238 7.5,94.5C 7.5,92.8333 7.5,91.1667 7.5,89.5 Z"/></g>
</svg>
